<svg width="334" height="118" viewBox="0 0 334 118" fill="none" xmlns="http://www.w3.org/2000/svg">
<g clip-path="url(#clip0_1_39)">
<rect width="334" height="118" rx="30" fill="#42C83C"/>
<path d="M310.597 -6.27098C303.833 0.476124 295.541 9.63125 292.921 19.9719C291.614 25.1331 291.721 30.5859 294.137 36.1864C296.555 41.7896 301.295 47.5628 309.292 53.347L310.244 54.0262C330.223 68.0468 348.62 67.5147 362.231 68.165C369.122 68.4942 374.867 69.1274 378.901 72.2063C382.955 75.3008 385.205 80.7991 385.319 90.6559L385.025 90.6478L384.73 90.641C384.617 80.8335 382.374 75.5584 378.539 72.6309C374.683 69.6882 369.142 69.0487 362.222 68.7181C348.641 68.0692 330.055 68.6069 309.903 54.4656L308.943 53.7808C300.883 47.9512 296.061 42.1009 293.592 36.3795C291.122 30.6552 291.015 25.0812 292.347 19.8253C295.006 9.33215 303.4 0.0869057 310.161 -6.65737L310.597 -6.27098ZM334.952 -61.2768C328.188 -54.5297 319.895 -45.3746 317.276 -35.0339C316.583 -32.2989 316.287 -29.482 316.522 -26.6046C319.411 -36.7369 327.527 -45.6568 334.1 -52.2132L334.536 -51.8268C327.772 -45.0797 319.48 -35.9245 316.86 -25.5839C316.808 -25.3806 316.759 -25.1768 316.712 -24.9726C316.847 -24.0841 317.034 -23.1905 317.277 -22.292C320.959 -30.4752 327.585 -37.6712 333.119 -43.1909L333.554 -42.8041C327.867 -37.1314 321.101 -29.7564 317.533 -21.4061C317.776 -20.6215 318.065 -19.834 318.398 -19.0431C322.131 -25.0799 327.126 -30.4219 331.453 -34.7383L331.889 -34.3515C327.47 -29.9438 322.4 -24.5082 318.684 -18.3862C318.955 -17.7873 319.253 -17.1865 319.578 -16.5841C322.598 -20.4931 325.951 -24.0143 328.978 -27.0335L329.413 -26.6466C326.328 -23.5688 322.925 -19.9894 319.887 -16.0255C320.087 -15.6736 320.296 -15.321 320.516 -14.968C322.234 -16.8695 323.96 -18.6436 325.592 -20.2713L326.028 -19.8849C324.356 -18.2168 322.59 -16.4021 320.839 -14.4582C320.876 -14.4019 320.913 -14.3459 320.95 -14.2896C321.056 -14.3965 321.162 -14.5037 321.267 -14.6093L321.704 -14.2229C321.563 -14.0821 321.422 -13.9391 321.279 -13.7962C324.007 -9.79285 328.02 -5.72836 333.646 -1.65882L334.599 -0.980049C354.578 13.0404 372.975 12.5089 386.585 13.1591C393.477 13.4884 399.222 14.1215 403.256 17.2005C407.31 20.295 409.56 25.7932 409.674 35.6501L409.379 35.642L409.085 35.6352C408.972 25.8279 406.729 20.5522 402.894 17.6246C399.038 14.6819 393.496 14.0429 386.577 13.7123C372.995 13.0634 354.41 13.6004 334.258 -0.540638L333.297 -1.22503C327.684 -5.28519 323.641 -9.35557 320.87 -13.3854C319.851 -12.3569 318.804 -11.278 317.754 -10.15C317.857 -9.8901 317.963 -9.62946 318.075 -9.36894C320.493 -3.76581 325.233 2.00756 333.23 7.79166L334.183 8.47043C354.161 22.4908 372.558 21.9594 386.169 22.6096C393.06 22.9389 398.805 23.572 402.839 26.651C406.893 29.7454 409.144 35.2432 409.258 45.1001L408.963 45.0925L408.669 45.0852C408.556 35.2779 406.313 30.0026 402.477 27.0751C398.622 24.1324 393.08 23.4934 386.16 23.1628C372.579 22.5139 353.993 23.0509 333.842 8.90984L332.881 8.22545C324.821 2.39593 320 -3.45496 317.531 -9.17631C317.458 -9.34362 317.388 -9.51106 317.32 -9.67812C316.613 -8.91021 315.906 -8.12141 315.206 -7.31194C315.472 -5.02334 316.08 -2.698 317.094 -0.346717C319.512 5.25641 324.252 11.0298 332.249 16.8139L333.202 17.4927C353.18 31.5131 371.577 30.9816 385.188 31.6318C392.079 31.9611 397.824 32.5942 401.858 35.6732C405.912 38.7677 408.164 44.266 408.277 54.1232L407.982 54.1155L407.688 54.1088C407.575 44.301 405.332 39.0249 401.496 36.0973C397.641 33.1546 392.099 32.5156 385.179 32.185C371.598 31.5361 353.012 32.0732 332.861 17.9321L331.9 17.2477C323.84 11.4181 319.019 5.56733 316.55 -0.154082C315.595 -2.36595 314.994 -4.55531 314.692 -6.71252C314.596 -6.59894 314.499 -6.48494 314.403 -6.37061C314.143 -5.98889 313.888 -5.60318 313.637 -5.21548C313.023 -0.925082 313.459 3.54142 315.429 8.1059C317.847 13.7091 322.586 19.4824 330.583 25.2665L331.536 25.9453C351.515 39.9658 369.912 39.4342 383.522 40.0845C390.414 40.4137 396.159 41.0469 400.193 44.1258C404.247 47.2203 406.497 52.7192 406.611 62.5763L406.316 62.5673L406.022 62.5605C405.909 52.7532 403.666 47.4775 399.831 44.55C395.975 41.6073 390.433 40.9682 383.514 40.6376C369.932 39.9887 351.347 40.5258 331.195 26.3847L330.234 25.7003C322.175 19.8707 317.353 14.02 314.884 8.29854C313.063 4.07966 312.527 -0.057274 312.904 -4.04553C312.443 -2.84983 312.049 -1.63595 311.737 -0.404569C310.429 4.7567 310.536 10.2102 312.953 15.8108C315.371 21.4139 320.111 27.1873 328.108 32.9714L329.061 33.6501C349.039 47.6705 367.436 47.1391 381.047 47.7893C387.939 48.1186 393.683 48.7517 397.717 51.8307C401.771 54.9252 404.022 60.423 404.136 70.2798L403.841 70.2722L403.547 70.2649C403.434 60.4573 401.19 55.1815 397.355 52.254C393.499 49.3115 387.958 48.6731 381.038 48.3425C367.457 47.6936 348.871 48.2305 328.72 34.0896L327.759 33.4052C319.699 27.5755 314.877 21.724 312.408 16.0026C309.938 10.2784 309.832 4.70498 311.164 -0.550763C311.234 -0.828076 311.308 -1.10457 311.386 -1.38011C310.081 1.1067 309.027 3.69269 308.352 6.35798C307.044 11.5192 307.151 16.972 309.568 22.5725C311.986 28.1757 316.726 33.9489 324.723 39.7331L325.675 40.4123C345.654 54.4329 364.051 53.9008 377.662 54.551C384.553 54.8803 390.298 55.5135 394.332 58.5924C398.386 61.6869 400.637 67.1858 400.751 77.0428L400.456 77.0348L400.162 77.028C400.049 67.2204 397.806 61.9441 393.97 59.0165C390.115 56.0739 384.573 55.4348 377.653 55.1042C364.072 54.4553 345.486 54.993 325.334 40.8517L324.374 40.1669C316.314 34.3373 311.492 28.487 309.023 22.7656C306.552 17.0413 306.446 11.4673 307.778 6.21142C308.526 3.25774 309.728 0.402396 311.221 -2.32555C308.015 2.06625 305.325 6.89771 304.028 12.0199C302.72 17.1811 302.827 22.6339 305.244 28.2344C307.662 33.8376 312.401 39.6109 320.398 45.395L321.35 46.0743C341.329 60.0948 359.727 59.5627 373.337 60.213C380.229 60.5422 385.974 61.1754 390.008 64.2544C394.062 67.3488 396.312 72.8471 396.426 82.7039L396.132 82.6959L395.837 82.6891C395.724 72.8816 393.48 67.6064 389.645 64.6789C385.789 61.7363 380.248 61.0967 373.329 60.7661C359.747 60.1173 341.161 60.6549 321.01 46.5137L320.049 45.8288C311.99 39.9993 307.168 34.1489 304.698 28.4275C302.228 22.7032 302.122 17.1292 303.454 11.8734C305.04 5.61055 308.671 -0.207484 312.777 -5.31472C312.919 -5.65038 313.065 -5.98459 313.217 -6.31702C313.218 -6.32516 313.22 -6.33332 313.221 -6.34145C307.27 -0.0449649 301.038 7.82004 298.832 16.5282C297.524 21.6894 297.631 27.1429 300.048 32.7435C302.466 38.3466 307.206 44.12 315.203 49.9041L316.156 50.5829C336.134 64.6032 354.531 64.0718 368.142 64.7221C375.033 65.0513 380.778 65.6838 384.812 68.7626C388.866 71.8571 391.116 77.3558 391.23 87.213L390.936 87.2049L390.641 87.1981C390.528 77.3903 388.285 72.1142 384.45 69.1867C380.594 66.2441 375.053 65.6058 368.133 65.2752C354.552 64.6263 335.966 65.1632 315.815 51.0223L314.854 50.3379C306.794 44.5082 301.972 38.6568 299.503 32.9353C297.033 27.2113 296.926 21.6381 298.258 16.3824C300.58 7.21773 307.277 -0.995391 313.441 -7.42132C313.503 -7.70009 313.568 -7.97814 313.638 -8.25517C313.873 -9.1816 314.152 -10.0985 314.471 -11.0046C314.541 -12.9406 314.832 -14.8442 315.304 -16.7078C315.365 -16.948 315.43 -17.1873 315.497 -17.4261C315.317 -20.0111 315.554 -22.5453 316.114 -25.0122C315.6 -28.4982 315.871 -31.9012 316.701 -35.1805C319.36 -45.6738 327.755 -54.9194 334.516 -61.6636L334.952 -61.2768ZM304.161 -3.69332C297.398 3.05375 289.105 12.209 286.485 22.5495C285.178 27.7106 285.285 33.1637 287.701 38.764C290.12 44.3672 294.859 50.1405 302.856 55.9246L303.809 56.6034C323.788 70.6238 342.184 70.0924 355.795 70.7426C362.687 71.0719 368.431 71.705 372.465 74.784C376.519 77.8784 378.77 83.3763 378.884 93.2331L378.589 93.2255L378.295 93.2187C378.181 83.4108 375.938 78.1348 372.103 75.2073C368.247 72.2648 362.706 71.6263 355.786 71.2957C342.205 70.6469 323.619 71.1838 303.468 57.0428L302.507 56.3584C294.447 50.5289 289.626 44.678 287.157 38.9567C284.686 33.2323 284.58 27.6584 285.912 22.4025C288.571 11.9093 296.965 2.66408 303.726 -4.08018L304.161 -3.69332ZM297.377 -1.73854C290.614 5.00849 282.321 14.163 279.701 24.5035C278.393 29.6648 278.501 35.1183 280.918 40.7188C283.336 46.322 288.075 52.0953 296.072 57.8794L297.024 58.5587C317.003 72.579 335.4 72.0476 349.01 72.6979C355.902 73.0271 361.647 73.6591 365.681 76.7379C369.735 79.8324 371.986 85.3311 372.099 95.1884L371.805 95.1803L371.511 95.1735C371.397 85.3657 369.154 80.09 365.318 77.1625C361.463 74.2201 355.922 73.5811 349.002 73.2505C335.421 72.6017 316.835 73.1391 296.683 58.9981L295.723 58.3132C287.663 52.4836 282.841 46.6326 280.371 40.9111C277.901 35.1869 277.796 29.6135 279.127 24.3578C281.786 13.8646 290.18 4.61934 296.941 -2.12493L297.377 -1.73854ZM290.387 -0.170865C283.624 6.57618 275.332 15.7311 272.712 26.0715C271.404 31.2328 271.511 36.686 273.927 42.2865C276.345 47.8896 281.085 53.663 289.082 59.4471L290.035 60.1259C310.014 74.1463 328.41 73.6148 342.021 74.2651C348.913 74.5943 354.657 75.2275 358.691 78.3064C362.745 81.4009 364.997 86.8992 365.111 96.7564L364.816 96.7488L364.521 96.7407C364.408 86.9334 362.165 81.658 358.329 78.7306C354.474 75.7879 348.932 75.1488 342.012 74.8182C328.431 74.1694 309.845 74.7064 289.694 60.5653L288.733 59.8809C280.673 54.0514 275.852 48.2005 273.383 42.4791C270.912 36.7548 270.806 31.1808 272.138 25.925C274.797 15.4318 283.191 6.18652 289.952 -0.557718L290.387 -0.170865ZM283.301 1.20722C276.537 7.95432 268.245 17.1094 265.625 27.4501C264.318 32.6112 264.425 38.0641 266.841 43.6646C269.259 49.2678 273.999 55.0418 281.996 60.826L282.948 61.5044C302.927 75.525 321.325 74.9937 334.935 75.644C341.827 75.9732 347.571 76.6056 351.605 79.6845C355.659 82.779 357.91 88.2778 358.024 98.1349L357.729 98.1268L357.435 98.1201C357.322 88.3124 355.079 83.0362 351.243 80.1086C347.388 77.1659 341.846 76.5269 334.926 76.1963C321.345 75.5474 302.759 76.0846 282.608 61.9434L281.647 61.259C273.587 55.4294 268.766 49.5787 266.297 43.8572C263.826 38.1329 263.719 32.5594 265.051 27.3035C267.709 16.8105 276.105 7.56589 282.865 0.821653L283.301 1.20722ZM276.199 2.55405C269.435 9.30114 261.143 18.4564 258.523 28.7969C257.215 33.958 257.323 39.4111 259.739 45.0114C262.157 50.6146 266.897 56.3887 274.894 62.1729L275.847 62.8516C295.826 76.8719 314.223 76.3406 327.833 76.9908C334.725 77.3201 340.469 77.9525 344.503 81.0313C348.557 84.1258 350.809 89.6241 350.922 99.4813L350.627 99.4737L350.334 99.4664C350.221 89.6586 347.977 84.383 344.141 81.4555C340.286 78.5128 334.744 77.8737 327.824 77.5431C314.243 76.8943 295.657 77.4313 275.506 63.2902L274.545 62.6058C266.485 56.7763 261.664 50.9254 259.195 45.2041C256.724 39.4798 256.618 33.9057 257.95 28.6499C260.608 18.1568 269.003 8.9122 275.764 2.16803L276.199 2.55405ZM269.14 3.98716C262.377 10.7343 254.084 19.8894 251.464 30.23C250.157 35.3911 250.264 40.8441 252.68 46.4445C255.099 52.0477 259.838 57.8218 267.835 63.606L268.788 64.2839C288.767 78.3044 307.164 77.7737 320.774 78.4239C327.666 78.7532 333.41 79.3856 337.444 82.4645C341.498 85.5589 343.75 91.0572 343.864 100.914L343.569 100.907L343.274 100.9C343.161 91.0922 340.918 85.8161 337.083 82.8886C333.227 79.9459 327.685 79.3068 320.765 78.9762C307.184 78.3274 288.598 78.8644 268.447 64.7233L267.486 64.0389C259.426 58.2094 254.605 52.3586 252.136 46.6372C249.666 40.9129 249.559 35.3388 250.891 30.083C253.55 19.59 261.945 10.3453 268.705 3.60113L269.14 3.98716ZM262.171 5.59354C255.407 12.3406 247.115 21.4959 244.495 31.8364C243.187 36.9975 243.294 42.4505 245.711 48.0509C248.129 53.654 252.869 59.4274 260.865 65.2115L261.818 65.8903C281.797 79.9107 300.194 79.3792 313.804 80.0295C320.696 80.3587 326.441 80.9919 330.475 84.0708C334.529 87.1653 336.78 92.6636 336.894 102.521L336.599 102.513L336.305 102.506C336.192 92.6981 333.948 87.4225 330.113 84.495C326.257 81.5523 320.716 80.9132 313.796 80.5826C300.215 79.9338 281.629 80.4708 261.478 66.3297L260.516 65.6453C252.457 59.8157 247.636 53.9649 245.166 48.2435C242.696 42.5192 242.59 36.9453 243.921 31.6894C246.58 21.1963 254.975 11.9509 261.735 5.20669L262.171 5.59354ZM255.326 7.43302C248.562 14.18 240.269 23.3346 237.649 33.6751C236.341 38.8363 236.449 44.2898 238.866 49.8904C241.284 55.4936 246.023 61.2669 254.02 67.051L254.972 67.7302C274.951 81.7506 293.348 81.2192 306.958 81.8694C313.85 82.1987 319.595 82.8318 323.629 85.9108C327.683 89.0052 329.934 94.5029 330.048 104.36L329.753 104.352L329.459 104.345C329.346 94.5373 327.102 89.2616 323.266 86.3341C319.411 83.3917 313.87 82.7527 306.951 82.4221C293.369 81.7732 274.783 82.3107 254.631 68.1696L253.671 67.4848C245.612 61.6551 240.789 55.8041 238.32 50.0827C235.85 44.3585 235.744 38.785 237.075 33.5293C239.734 23.0362 248.128 13.7909 254.889 7.04663L255.326 7.43302ZM248.627 9.54551C241.863 16.2925 233.57 25.4471 230.95 35.7875C229.643 40.9488 229.75 46.4023 232.167 52.0029C234.585 57.606 239.325 63.3794 247.321 69.1635L248.274 69.8427C268.252 83.863 286.649 83.3317 300.26 83.9819C307.151 84.3112 312.896 84.9438 316.93 88.0224C320.984 91.1169 323.235 96.6152 323.349 106.472L323.054 106.465L322.76 106.458C322.647 96.6497 320.403 91.3741 316.568 88.4466C312.712 85.5041 307.171 84.8652 300.252 84.5346C286.671 83.8857 268.084 84.4232 247.933 70.2821L246.973 69.5973C238.913 63.7676 234.09 57.9166 231.621 52.1951C229.151 46.471 229.045 40.8975 230.377 35.6418C233.035 25.1486 241.43 15.9034 248.191 9.15912L248.627 9.54551ZM314.564 -7.7429C314.494 -7.60754 314.427 -7.47152 314.359 -7.33558C314.432 -7.44002 314.505 -7.54509 314.578 -7.64905C314.575 -7.68211 314.573 -7.71521 314.57 -7.74825C314.568 -7.74637 314.566 -7.74479 314.564 -7.7429ZM314.476 -9.08395C314.427 -8.91525 314.381 -8.74607 314.335 -8.57672C314.385 -8.67223 314.436 -8.76792 314.487 -8.86313C314.483 -8.93678 314.479 -9.01038 314.476 -9.08395ZM316.674 -11.4353C316.292 -10.8284 315.923 -10.2138 315.568 -9.59314C315.737 -9.76344 315.905 -9.93347 316.073 -10.1007L316.271 -9.92392C316.483 -10.1978 316.697 -10.4702 316.912 -10.7402C316.829 -10.9721 316.75 -11.204 316.674 -11.4353ZM316.097 -13.4759C315.717 -12.6225 315.368 -11.7594 315.058 -10.8858C315.047 -10.5485 315.043 -10.2101 315.046 -9.87086C315.491 -10.648 315.961 -11.4133 316.447 -12.1684C316.318 -12.6055 316.2 -13.041 316.097 -13.4759ZM320.447 -14.0174C319.854 -13.3516 319.264 -12.671 318.681 -11.9765C319.307 -12.6289 319.929 -13.2621 320.539 -13.8766C320.508 -13.9235 320.477 -13.9706 320.447 -14.0174ZM319.511 -15.5319C318.665 -14.4071 317.851 -13.2515 317.082 -12.0691C317.163 -11.8038 317.25 -11.5383 317.341 -11.2722C318.251 -12.3931 319.183 -13.4793 320.119 -14.5276C319.908 -14.8627 319.705 -15.1974 319.511 -15.5319ZM318.327 -17.7865C317.668 -16.6651 317.056 -15.5212 316.503 -14.3572C316.607 -13.8446 316.728 -13.3304 316.868 -12.8146C317.609 -13.9317 318.389 -15.0237 319.196 -16.0872C318.882 -16.6546 318.593 -17.2213 318.327 -17.7865ZM315.676 -15.7111C315.471 -14.7844 315.313 -13.8488 315.206 -12.9049C315.421 -13.4206 315.65 -13.9322 315.889 -14.4404C315.806 -14.8651 315.736 -15.2887 315.676 -15.7111ZM317.193 -20.5799C316.77 -19.5186 316.399 -18.4424 316.091 -17.3523C316.14 -16.6843 316.217 -16.013 316.324 -15.3386C316.85 -16.3904 317.421 -17.4249 318.03 -18.44C318.002 -18.5024 317.974 -18.5644 317.947 -18.6268C317.665 -19.2798 317.414 -19.931 317.193 -20.5799ZM316.4 -23.4242C316.158 -22.0136 316.027 -20.5835 316.025 -19.1364C316.291 -19.9175 316.589 -20.6903 316.911 -21.4553C316.712 -22.1142 316.541 -22.7704 316.4 -23.4242Z" fill="url(#paint0_radial_1_39)" fill-opacity="0.58"/>
<path d="M20.59 25H19.87V17.84H20.6L24.54 23.8V17.84H25.25V25H24.54L20.59 19.04V25ZM28.8789 25.12C27.4589 25.12 26.5089 24.1 26.5089 22.58C26.5089 21.07 27.4489 20.03 28.8289 20.03C30.1389 20.03 31.0289 20.96 31.0289 22.33V22.67H27.1789C27.2289 23.85 27.8489 24.53 28.8889 24.53C29.6789 24.53 30.1889 24.19 30.3689 23.55H31.0289C30.7689 24.57 30.0189 25.12 28.8789 25.12ZM28.8289 20.62C27.9189 20.62 27.3189 21.22 27.1989 22.17H30.3389C30.3389 21.24 29.7389 20.62 28.8289 20.62ZM33.0252 25L31.4252 20.16H32.1352L33.0852 23.08C33.1952 23.4 33.2852 23.73 33.3852 24.12C33.4652 23.73 33.6252 23.24 33.6752 23.08L34.6352 20.16H35.3452L36.2952 23.08C36.3852 23.34 36.5052 23.76 36.5952 24.12C36.6952 23.72 36.7152 23.6 36.8852 23.08L37.8452 20.16H38.5652L36.9252 25H36.2552L35.2552 21.96C35.1352 21.6 35.0552 21.3 34.9952 21.01C34.9252 21.27 34.8452 21.56 34.7152 21.96L33.7152 25H33.0252ZM42.3505 25H41.6205L44.2505 17.84H45.1405L47.8005 25H47.0505L46.3505 23.1H43.0505L42.3505 25ZM44.6005 18.85L43.2705 22.47H46.1205L44.7805 18.85C44.7505 18.75 44.7005 18.63 44.6905 18.56C44.6805 18.62 44.6405 18.75 44.6005 18.85ZM49.3658 25H48.6758V17.71H49.3658V25ZM51.4333 25H50.8333V17.71H51.5233V21.1C51.8633 20.39 52.5233 20.03 53.3433 20.03C54.7533 20.03 55.5733 21.13 55.5733 22.59C55.5733 24.04 54.7333 25.12 53.3233 25.12C52.5133 25.12 51.8433 24.76 51.5033 24.01L51.4333 25ZM51.5333 22.57C51.5333 23.69 52.1533 24.49 53.2133 24.49C54.2633 24.49 54.8733 23.69 54.8733 22.57C54.8733 21.46 54.2633 20.65 53.2133 20.65C52.1533 20.65 51.5333 21.46 51.5333 22.57ZM59.9559 20.16H60.6459V25H60.0459L59.9559 24.18C59.6859 24.74 59.0159 25.12 58.2559 25.12C57.1159 25.12 56.4959 24.34 56.4959 23.16V20.15H57.1959V22.94C57.1959 24.09 57.7059 24.5 58.4759 24.5C59.4059 24.5 59.9559 23.88 59.9559 22.73V20.16ZM62.7733 25H62.0833V20.16H62.6833L62.7633 20.85C63.0033 20.34 63.5433 20.03 64.2233 20.03C64.9833 20.03 65.5533 20.43 65.7833 21.06C66.0033 20.43 66.5933 20.03 67.3733 20.03C68.4233 20.03 69.1133 20.71 69.1133 21.83V25H68.4433V21.97C68.4433 21.14 67.9833 20.65 67.2433 20.65C66.4333 20.65 65.9533 21.26 65.9533 22.01V25H65.2733V21.96C65.2733 21.14 64.8033 20.66 64.0733 20.66C63.2633 20.66 62.7733 21.26 62.7733 22V25Z" fill="#FBFBFB"/>
<path d="M19.546 92.136C19.546 91.7287 19.624 91.3603 19.78 91.031C19.936 90.7017 20.1527 90.42 20.43 90.186C20.716 89.9433 21.0583 89.757 21.457 89.627C21.8557 89.497 22.2977 89.432 22.783 89.432C23.6843 89.432 24.4037 89.666 24.941 90.134C25.487 90.602 25.786 91.2433 25.838 92.058H24.551C24.5163 91.59 24.343 91.226 24.031 90.966C23.719 90.706 23.2987 90.576 22.77 90.576C22.172 90.576 21.6953 90.7147 21.34 90.992C20.9933 91.2607 20.82 91.629 20.82 92.097C20.82 92.8337 21.2577 93.306 22.133 93.514L23.68 93.878C25.2227 94.2333 25.994 95.0697 25.994 96.387C25.994 96.8117 25.916 97.193 25.76 97.531C25.604 97.869 25.3787 98.1593 25.084 98.402C24.798 98.6447 24.4513 98.831 24.044 98.961C23.6367 99.091 23.1817 99.156 22.679 99.156C22.2023 99.156 21.7647 99.0953 21.366 98.974C20.976 98.8527 20.638 98.6793 20.352 98.454C20.0747 98.2287 19.8537 97.9557 19.689 97.635C19.5243 97.3057 19.4333 96.9417 19.416 96.543H20.716C20.7333 96.9937 20.9153 97.3533 21.262 97.622C21.6087 97.882 22.081 98.012 22.679 98.012C23.303 98.012 23.797 97.8777 24.161 97.609C24.5337 97.3317 24.72 96.959 24.72 96.491C24.72 96.1183 24.616 95.815 24.408 95.581C24.2 95.347 23.8707 95.178 23.42 95.074L21.873 94.723C20.3217 94.3677 19.546 93.5053 19.546 92.136ZM26.9709 95.815C26.9709 95.321 27.0533 94.8703 27.2179 94.463C27.3826 94.0557 27.6123 93.7047 27.9069 93.41C28.2016 93.1153 28.5526 92.8857 28.9599 92.721C29.3673 92.5563 29.8093 92.474 30.2859 92.474C30.6673 92.474 31.0226 92.526 31.3519 92.63C31.6813 92.734 31.9846 92.8813 32.2619 93.072C32.4006 93.046 32.5089 93.0027 32.5869 92.942C32.6649 92.8727 32.7213 92.799 32.7559 92.721C32.7906 92.643 32.8079 92.5607 32.8079 92.474C32.8166 92.3873 32.8209 92.305 32.8209 92.227V91.954H34.0559V92.227C34.0559 92.7297 33.9953 93.137 33.8739 93.449C33.7613 93.7523 33.5273 93.9733 33.1719 94.112C33.4493 94.6147 33.5879 95.1823 33.5879 95.815C33.5879 96.309 33.5056 96.7597 33.3409 97.167C33.1763 97.5743 32.9466 97.9253 32.6519 98.22C32.3573 98.5147 32.0063 98.7443 31.5989 98.909C31.2003 99.0737 30.7626 99.156 30.2859 99.156C29.8093 99.156 29.3673 99.0737 28.9599 98.909C28.5526 98.7443 28.2016 98.5147 27.9069 98.22C27.6123 97.9253 27.3826 97.5743 27.2179 97.167C27.0533 96.7597 26.9709 96.309 26.9709 95.815ZM28.2059 95.815C28.2059 96.1443 28.2536 96.4477 28.3489 96.725C28.4529 97.0023 28.5959 97.2407 28.7779 97.44C28.9599 97.6393 29.1766 97.7953 29.4279 97.908C29.6879 98.012 29.9739 98.064 30.2859 98.064C30.5893 98.064 30.8666 98.012 31.1179 97.908C31.3779 97.7953 31.5989 97.6393 31.7809 97.44C31.9629 97.2407 32.1059 97.0023 32.2099 96.725C32.3139 96.4477 32.3659 96.1443 32.3659 95.815C32.3659 95.4857 32.3139 95.1823 32.2099 94.905C32.1059 94.6277 31.9629 94.3893 31.7809 94.19C31.5989 93.9907 31.3779 93.839 31.1179 93.735C30.8666 93.6223 30.5893 93.566 30.2859 93.566C29.9739 93.566 29.6879 93.6223 29.4279 93.735C29.1766 93.839 28.9599 93.9907 28.7779 94.19C28.5959 94.3893 28.4529 94.6277 28.3489 94.905C28.2536 95.1823 28.2059 95.4857 28.2059 95.815ZM35.3723 99V92.643H36.4773L36.6073 93.618C36.8066 93.254 37.0926 92.9723 37.4653 92.773C37.8466 92.565 38.2626 92.461 38.7133 92.461C39.5539 92.461 40.1693 92.6993 40.5593 93.176C40.9579 93.6527 41.1573 94.2983 41.1573 95.113V99H39.9353V95.386C39.9353 94.736 39.7966 94.2723 39.5193 93.995C39.2419 93.7177 38.8693 93.579 38.4013 93.579C37.8293 93.579 37.3829 93.7653 37.0623 94.138C36.7503 94.5107 36.5943 95.009 36.5943 95.633V99H35.3723ZM45.7025 89.601H52.6315V90.771H49.8105V99H48.5365V90.771H45.7025V89.601ZM55.1789 91.902L54.0739 90.173H55.2569L56.1149 91.902H55.1789ZM58.5329 92.643V99H57.4409L57.3109 98.038C57.1289 98.3673 56.8429 98.636 56.4529 98.844C56.0629 99.052 55.6339 99.156 55.1659 99.156C54.4206 99.156 53.8486 98.9263 53.4499 98.467C53.0512 98.0077 52.8519 97.3837 52.8519 96.595V92.643H54.0739V96.192C54.0739 96.8767 54.2082 97.362 54.4769 97.648C54.7542 97.934 55.1269 98.077 55.5949 98.077C56.1582 98.077 56.5872 97.9037 56.8819 97.557C57.1766 97.2017 57.3239 96.6817 57.3239 95.997V92.643H58.5329ZM60.3059 99V92.643H61.4109L61.5409 93.618C61.7402 93.254 62.0262 92.9723 62.3989 92.773C62.7802 92.565 63.1962 92.461 63.6469 92.461C64.4875 92.461 65.1029 92.6993 65.4929 93.176C65.8915 93.6527 66.0909 94.2983 66.0909 95.113V99H64.8689V95.386C64.8689 94.736 64.7302 94.2723 64.4529 93.995C64.1755 93.7177 63.8029 93.579 63.3349 93.579C62.7629 93.579 62.3165 93.7653 61.9959 94.138C61.6839 94.5107 61.5279 95.009 61.5279 95.633V99H60.3059ZM67.3804 95.659C67.3804 95.2083 67.4497 94.788 67.5884 94.398C67.7271 94.008 67.9264 93.67 68.1864 93.384C68.4464 93.098 68.7627 92.8727 69.1354 92.708C69.5081 92.5433 69.9241 92.461 70.3834 92.461C70.9034 92.461 71.3541 92.5737 71.7354 92.799C72.1167 93.0157 72.4071 93.3233 72.6064 93.722L72.6974 92.643H73.7894V98.74C73.7894 99.2427 73.7157 99.6933 73.5684 100.092C73.4211 100.499 73.2087 100.846 72.9314 101.132C72.6541 101.418 72.3161 101.635 71.9174 101.782C71.5274 101.938 71.0897 102.016 70.6044 102.016C69.7377 102.016 69.0271 101.786 68.4724 101.327C67.9177 100.876 67.5797 100.244 67.4584 99.429H68.6804C68.7584 99.897 68.9621 100.261 69.2914 100.521C69.6294 100.781 70.0671 100.911 70.6044 100.911C71.2024 100.911 71.6791 100.729 72.0344 100.365C72.3984 100.01 72.5804 99.5287 72.5804 98.922V97.648C72.3724 98.0207 72.0691 98.311 71.6704 98.519C71.2804 98.727 70.8341 98.831 70.3314 98.831C69.8807 98.831 69.4734 98.7487 69.1094 98.584C68.7454 98.4193 68.4334 98.194 68.1734 97.908C67.9221 97.622 67.7271 97.2883 67.5884 96.907C67.4497 96.517 67.3804 96.101 67.3804 95.659ZM68.6024 95.633C68.6024 95.9277 68.6457 96.205 68.7324 96.465C68.8277 96.725 68.9577 96.9547 69.1224 97.154C69.2871 97.3447 69.4907 97.4963 69.7334 97.609C69.9761 97.713 70.2447 97.765 70.5394 97.765C70.8514 97.765 71.1287 97.713 71.3714 97.609C71.6141 97.505 71.8221 97.3577 71.9954 97.167C72.1687 96.9763 72.2987 96.751 72.3854 96.491C72.4807 96.231 72.5284 95.945 72.5284 95.633C72.5284 95.3297 72.4851 95.048 72.3984 94.788C72.3117 94.528 72.1817 94.307 72.0084 94.125C71.8437 93.9343 71.6357 93.787 71.3844 93.683C71.1417 93.579 70.8644 93.527 70.5524 93.527C70.2491 93.527 69.9761 93.5833 69.7334 93.696C69.4907 93.8 69.2827 93.9473 69.1094 94.138C68.9447 94.3287 68.8191 94.554 68.7324 94.814C68.6457 95.0653 68.6024 95.3383 68.6024 95.633ZM79.3156 99V89.601H80.5636L83.8006 97.505L87.0376 89.601H88.3116V99H87.0636V95.282C87.0636 94.84 87.0636 94.4673 87.0636 94.164C87.0636 93.852 87.068 93.579 87.0766 93.345C87.0853 93.111 87.094 92.9073 87.1026 92.734C87.1113 92.5607 87.1243 92.3917 87.1416 92.227L84.3986 99H83.2026L80.4726 92.253C80.5073 92.4783 80.529 92.825 80.5376 93.293C80.555 93.761 80.5636 94.3243 80.5636 94.983V99H79.3156ZM90.2272 95.009H94.1922V96.101H90.2272V95.009ZM94.2875 89.601H101.216V90.771H98.3955V99H97.1215V90.771H94.2875V89.601ZM103.771 95.646V99H102.497V89.601H106.15C106.61 89.601 107.026 89.6747 107.398 89.822C107.771 89.9607 108.087 90.1643 108.347 90.433C108.616 90.693 108.82 91.0093 108.958 91.382C109.106 91.7547 109.179 92.1663 109.179 92.617C109.179 93.059 109.106 93.4663 108.958 93.839C108.82 94.203 108.616 94.5193 108.347 94.788C108.087 95.0567 107.771 95.269 107.398 95.425C107.026 95.5723 106.61 95.646 106.15 95.646H103.771ZM103.771 90.745V94.502H105.877C106.51 94.502 106.995 94.333 107.333 93.995C107.671 93.6483 107.84 93.1847 107.84 92.604C107.84 92.006 107.671 91.5467 107.333 91.226C106.995 90.9053 106.527 90.745 105.929 90.745H103.771Z" fill="#FBFBFB"/>
<path d="M19.247 44.053V42.058H20.539V36.111H25.403C29.507 36.111 32.338 38.942 32.338 43.084C32.338 47.169 29.564 50 25.536 50H20.539V44.053H19.247ZM25.783 44.053H22.971V47.758H25.308C28.082 47.758 29.773 45.972 29.773 43.084C29.773 40.139 28.044 38.353 25.175 38.353H22.971V42.058H25.783V44.053ZM40.6265 40.614H42.9445V50H40.7975L40.6265 48.746C40.0565 49.639 38.8405 50.247 37.5865 50.247C35.4205 50.247 34.1475 48.784 34.1475 46.485V40.614H36.4655V45.668C36.4655 47.454 37.1685 48.176 38.4605 48.176C39.9235 48.176 40.6265 47.321 40.6265 45.535V40.614ZM41.6525 42.78L41.6145 40.614C42.8685 40.614 43.2675 40.367 43.2675 39.36V38.904H45.4145V39.36C45.4145 41.526 44.2935 42.78 41.6525 42.78ZM39.3725 39.493H37.6435L35.8005 36.662H37.9475L39.3725 39.493ZM49.2152 50H46.8972V40.614H49.0442L49.2342 41.83C49.8232 40.88 50.9632 40.329 52.2362 40.329C54.5922 40.329 55.8082 41.792 55.8082 44.224V50H53.4902V44.775C53.4902 43.198 52.7112 42.438 51.5142 42.438C50.0892 42.438 49.2152 43.426 49.2152 44.946V50ZM57.5537 45.098C57.5537 42.362 59.3397 40.31 62.0187 40.31C63.4247 40.31 64.5267 40.899 65.0777 41.906L65.2107 40.614H67.3577V49.525C67.3577 52.66 65.4767 54.617 62.4367 54.617C59.7387 54.617 57.8957 53.078 57.6107 50.57H59.9287C60.0807 51.786 61.0117 52.508 62.4367 52.508C64.0327 52.508 65.0587 51.501 65.0587 49.943V48.385C64.4697 49.259 63.3107 49.81 61.9617 49.81C59.3017 49.81 57.5537 47.815 57.5537 45.098ZM59.8907 45.041C59.8907 46.618 60.8977 47.796 62.4177 47.796C64.0137 47.796 65.0017 46.675 65.0017 45.041C65.0017 43.445 64.0327 42.343 62.4177 42.343C60.8787 42.343 59.8907 43.502 59.8907 45.041ZM77.6517 36.111V47.758H83.4657V50H75.2197V36.111H77.6517ZM90.0793 39.493H88.3693L86.5263 36.662H88.6733L90.0793 39.493ZM87.8943 50.247C85.8993 50.247 84.6833 49.088 84.6833 47.321C84.6833 45.592 85.9373 44.509 88.1603 44.338L90.9723 44.129V43.92C90.9723 42.647 90.2123 42.134 89.0343 42.134C87.6663 42.134 86.9063 42.704 86.9063 43.692H84.9303C84.9303 41.659 86.6023 40.329 89.1483 40.329C91.6753 40.329 93.2333 41.697 93.2333 44.3V50H91.2003L91.0293 48.613C90.6303 49.582 89.3573 50.247 87.8943 50.247ZM88.6543 48.499C90.0793 48.499 90.9913 47.644 90.9913 46.2V45.706L89.0343 45.858C87.5903 45.991 87.0393 46.466 87.0393 47.226C87.0393 48.081 87.6093 48.499 88.6543 48.499ZM97.8285 50H95.5105V40.614H97.6385L97.8285 41.716C98.3035 40.937 99.2535 40.329 100.602 40.329C102.027 40.329 103.015 41.032 103.509 42.115C103.984 41.032 105.086 40.329 106.511 40.329C108.791 40.329 110.045 41.697 110.045 43.863V50H107.746V44.471C107.746 43.122 107.024 42.419 105.922 42.419C104.801 42.419 103.946 43.141 103.946 44.68V50H101.628V44.452C101.628 43.141 100.925 42.438 99.8235 42.438C98.7215 42.438 97.8285 43.16 97.8285 44.68V50ZM116.568 38.353V36.111H127.132V38.353H123.066V50H120.634V38.353H116.568ZM133.407 40.576V42.723H132.552C130.88 42.723 129.835 43.616 129.835 45.44V50H127.517V40.633H129.702L129.835 42.001C130.234 41.07 131.127 40.443 132.381 40.443C132.704 40.443 133.027 40.481 133.407 40.576ZM141.483 36.681L139.621 39.493H137.911L139.336 36.681H141.483ZM137.398 50.247C135.403 50.247 134.187 49.088 134.187 47.321C134.187 45.592 135.441 44.509 137.664 44.338L140.476 44.129V43.92C140.476 42.647 139.716 42.134 138.538 42.134C137.17 42.134 136.41 42.704 136.41 43.692H134.434C134.434 41.659 136.106 40.329 138.652 40.329C141.179 40.329 142.737 41.697 142.737 44.3V50H140.704L140.533 48.613C140.134 49.582 138.861 50.247 137.398 50.247ZM138.158 48.499C139.583 48.499 140.495 47.644 140.495 46.2V45.706L138.538 45.858C137.094 45.991 136.543 46.466 136.543 47.226C136.543 48.081 137.113 48.499 138.158 48.499ZM146.173 38.733C145.375 38.733 144.748 38.106 144.748 37.327C144.748 36.548 145.375 35.94 146.173 35.94C146.933 35.94 147.56 36.548 147.56 37.327C147.56 38.106 146.933 38.733 146.173 38.733ZM145.014 50V40.614H147.332V50H145.014ZM19.323 64.353V62.111H29.887V64.353H25.821V76H23.389V64.353H19.323ZM32.563 64.733C31.765 64.733 31.138 64.106 31.138 63.327C31.138 62.548 31.765 61.94 32.563 61.94C33.323 61.94 33.95 62.548 33.95 63.327C33.95 64.106 33.323 64.733 32.563 64.733ZM31.404 76V66.614H33.722V76H31.404ZM38.4349 76H36.1169V66.614H38.2449L38.4349 67.716C38.9099 66.937 39.8599 66.329 41.2089 66.329C42.6339 66.329 43.6219 67.032 44.1159 68.115C44.5909 67.032 45.6929 66.329 47.1179 66.329C49.3979 66.329 50.6519 67.697 50.6519 69.863V76H48.3529V70.471C48.3529 69.122 47.6309 68.419 46.5289 68.419C45.4079 68.419 44.5529 69.141 44.5529 70.68V76H42.2349V70.452C42.2349 69.141 41.5319 68.438 40.4299 68.438C39.3279 68.438 38.4349 69.16 38.4349 70.68V76ZM59.5876 76H57.0606L62.0766 62.111H64.5656L69.5816 76H67.0166L65.8956 72.789H60.7086L59.5876 76ZM63.0076 66.253L61.4306 70.737H65.1926L63.5966 66.253C63.4826 65.892 63.3496 65.474 63.3116 65.189C63.2546 65.455 63.1406 65.873 63.0076 66.253ZM73.2992 76H70.9812V66.614H73.1282L73.3182 67.83C73.9072 66.88 75.0472 66.329 76.3202 66.329C78.6762 66.329 79.8922 67.792 79.8922 70.224V76H77.5742V70.775C77.5742 69.198 76.7952 68.438 75.5982 68.438C74.1732 68.438 73.2992 69.426 73.2992 70.946V76ZM84.4877 76H82.1697V61.864H84.5067V67.83C85.0957 66.918 86.1977 66.329 87.5467 66.329C89.8647 66.329 91.0807 67.792 91.0807 70.224V76H88.7627V70.775C88.7627 69.198 87.9837 68.438 86.8057 68.438C85.3427 68.438 84.4877 69.464 84.4877 70.87V76ZM97.5292 70.053V68.058H98.8212V62.111H103.685C107.789 62.111 110.62 64.942 110.62 69.084C110.62 73.169 107.846 76 103.818 76H98.8212V70.053H97.5292ZM104.065 70.053H101.253V73.758H103.59C106.364 73.758 108.055 71.972 108.055 69.084C108.055 66.139 106.326 64.353 103.457 64.353H101.253V68.058H104.065V70.053ZM115.337 76.247C113.342 76.247 112.126 75.088 112.126 73.321C112.126 71.592 113.38 70.509 115.603 70.338L118.415 70.129V69.92C118.415 68.647 117.655 68.134 116.477 68.134C115.109 68.134 114.349 68.704 114.349 69.692H112.373C112.373 67.659 114.045 66.329 116.591 66.329C119.118 66.329 120.676 67.697 120.676 70.3V76H118.643L118.472 74.613C118.073 75.582 116.8 76.247 115.337 76.247ZM116.097 74.499C117.522 74.499 118.434 73.644 118.434 72.2V71.706L116.477 71.858C115.033 71.991 114.482 72.466 114.482 73.226C114.482 74.081 115.052 74.499 116.097 74.499ZM129.318 66.614H131.636V76H129.489L129.318 74.746C128.748 75.639 127.532 76.247 126.278 76.247C124.112 76.247 122.839 74.784 122.839 72.485V66.614H125.157V71.668C125.157 73.454 125.86 74.176 127.152 74.176C128.615 74.176 129.318 73.321 129.318 71.535V66.614Z" fill="#FBFBFB"/>
</g>
<defs>
<radialGradient id="paint0_radial_1_39" cx="0" cy="0" r="1" gradientUnits="userSpaceOnUse" gradientTransform="translate(307.981 40.6409) rotate(44.6553) scale(82.2368 83.1473)">
<stop stop-color="white"/>
<stop offset="1" stop-color="#1E1E1E" stop-opacity="0"/>
<stop offset="1" stop-color="#0E0E35" stop-opacity="0"/>
<stop offset="1" stop-color="white" stop-opacity="0"/>
</radialGradient>
<clipPath id="clip0_1_39">
<rect width="334" height="118" rx="30" fill="white"/>
</clipPath>
</defs>
</svg>
