<svg width="224" height="45" viewBox="0 0 224 45" fill="none" xmlns="http://www.w3.org/2000/svg">
<g clip-path="url(#clip0_275_288)">
<path d="M52.4418 0.164447C52.0524 0.38509 52.0654 0.372111 50.6507 5.16136C50.2873 6.40734 49.3657 9.41846 48.613 11.8455C47.8602 14.2726 47.1334 16.6348 46.9906 17.102C45.9782 20.3987 44.5635 24.8764 43.9925 26.4988C43.4084 28.238 43.3175 28.3937 43.2267 28.0563C43.1618 27.8486 43.1488 27.4722 43.1878 27.2256C43.2137 26.979 43.3046 24.4871 43.3824 21.7096C43.4473 18.9191 43.5771 14.7399 43.655 12.4036C43.7978 8.17248 43.7978 8.1595 43.5252 7.71822C43.1358 7.09523 42.4739 6.79671 41.4356 6.78373C39.5147 6.78373 39.8911 6.29053 35.3614 14.7658C32.2854 20.5285 31.286 22.3066 31.0005 22.4883C30.2347 22.9685 27.9504 18.0365 27.4832 14.8826C27.4313 14.5452 27.2755 14.0909 27.1457 13.8703C26.6396 13.0266 25.8608 13.0266 24.6019 13.8443C23.8101 14.3505 23.6414 14.5452 21.2403 17.4265C18.4109 20.84 17.6062 21.6187 17.2687 21.2813C17.2038 21.2164 17.0611 20.6713 16.9572 20.0742C16.7236 18.6595 16.5679 18.3221 16.0747 18.0235C15.3998 17.6212 15.0104 17.5823 14.3614 17.8808C13.6476 18.1923 13.2193 18.5427 12.3757 19.5031C11.545 20.4506 11.0258 20.827 10.2341 21.0606C9.42942 21.3072 8.50791 21.1645 7.08023 20.5934C5.84722 20.1002 5.25019 20.1002 4.8089 20.5674C4.39358 21.0087 4.15996 21.8783 4.21187 22.7479L4.25081 23.3968L5.15934 23.9549C6.47021 24.7596 7.57343 25.0711 8.89728 24.9933C10.325 24.9024 11.1426 24.5649 12.6093 23.4488C13.6216 22.683 13.8553 22.5532 13.985 22.709C14.0889 22.7998 14.3744 23.929 14.634 25.2009C15.1402 27.7059 15.5944 29.1336 15.9579 29.4061C16.49 29.7955 17.7749 29.1465 19.1896 27.7708C19.7477 27.2127 20.9677 25.8109 21.9022 24.6298C22.8367 23.4488 23.7712 22.3975 23.9659 22.2936C24.3033 22.1249 24.3423 22.1249 24.511 22.3455C24.6019 22.4883 24.9263 23.3579 25.2119 24.2924C25.5104 25.2269 26.1464 27.2516 26.6396 28.7831C27.1328 30.3146 27.6 31.8591 27.6909 32.1966C27.8726 32.9364 28.2489 33.2349 29.0017 33.2479L29.5209 33.2609L32.2984 28.6533C33.8429 26.1224 35.5042 23.3319 36.0104 22.4494C36.5166 21.5798 36.9838 20.9049 37.0487 20.9698C37.3083 21.2293 37.4251 24.2145 37.49 32.4172L37.5679 41.178L37.8664 41.6323C38.4634 42.5538 40.0339 43.9426 40.9813 44.3709C41.773 44.7343 42.3831 44.6954 42.8373 44.2411C43.4214 43.6441 44.7712 39.8153 49.0932 26.4988C49.7421 24.5001 50.3522 22.7479 50.456 22.6051C50.6247 22.3845 50.6377 22.4104 50.6507 22.9426C50.6507 23.267 50.5598 24.552 50.456 25.785C50.3392 27.031 50.2873 28.1342 50.3262 28.251C50.5079 28.835 55.4399 31.6385 56.2706 31.6385C56.9195 31.6385 57.5944 30.7949 58.6717 28.6144C59.7619 26.4339 59.3336 26.7195 62.4745 26.0316L64.3824 25.6292L64.4733 24.552C64.5641 23.4747 64.4863 22.5662 64.2526 21.8134C64.1488 21.437 64.032 21.3591 63.422 21.1774C62.5524 20.9308 61.553 21.0087 60.1123 21.463C58.7496 21.8913 58.0746 22.5013 57.3219 23.9939C57.0104 24.6298 56.7119 25.149 56.6729 25.149C56.5821 25.149 56.634 23.9809 57.0104 17.9457C57.3219 13.0396 57.4517 11.4432 57.828 8.01673C58.3212 3.46111 58.1785 1.68299 57.257 0.761481C56.7767 0.281258 56.0369 0.0995525 54.2199 0.0216786C53.0907 -0.0302374 52.7143 0.00869958 52.4418 0.164447Z" fill="url(#paint0_linear_275_288)"/>
<path d="M0.379635 20.9827C-0.126545 21.5019 -0.126545 22.047 0.379635 22.5661C0.730068 22.9036 0.846879 22.9425 1.59966 22.9425C2.0669 22.9425 2.54713 22.9036 2.66394 22.8647C3.00139 22.7219 3.28693 22.06 3.1831 21.5538C3.06628 20.9308 2.49521 20.6063 1.52179 20.6063C0.859858 20.6063 0.717089 20.6582 0.379635 20.9827Z" fill="url(#paint1_linear_275_288)"/>
</g>
<path d="M85.3401 33.8701H81.2241V32.2461C80.1881 33.3941 78.7601 34.1501 76.6881 34.1501C73.8601 34.1501 71.5361 32.5261 71.5361 29.5581V29.5021C71.5361 26.2261 74.0281 24.7141 77.5841 24.7141C79.0961 24.7141 80.1881 24.9661 81.2521 25.3301V25.0781C81.2521 23.3141 80.1601 22.3341 78.0321 22.3341C76.4081 22.3341 75.2601 22.6421 73.8881 23.1461L72.8241 19.8981C74.4761 19.1701 76.1001 18.6941 78.6481 18.6941C83.2961 18.6941 85.3401 21.1021 85.3401 25.1621V33.8701ZM81.3081 28.5781V27.8221C80.5801 27.4861 79.6281 27.2621 78.5921 27.2621C76.7721 27.2621 75.6521 27.9901 75.6521 29.3341V29.3901C75.6521 30.5381 76.6041 31.2101 77.9761 31.2101C79.9641 31.2101 81.3081 30.1181 81.3081 28.5781ZM102.638 33.8701H98.3825V31.7421C97.4025 33.0021 96.1425 34.1501 93.9864 34.1501C90.7665 34.1501 88.8904 32.0221 88.8904 28.5781V18.8621H93.1464V27.2341C93.1464 29.2501 94.0984 30.2861 95.7225 30.2861C97.3465 30.2861 98.3825 29.2501 98.3825 27.2341V18.8621H102.638V33.8701ZM121.54 33.8701H117.284V31.7141C116.248 33.1141 114.82 34.1501 112.608 34.1501C109.108 34.1501 105.776 31.4061 105.776 26.3941V26.3381C105.776 21.3261 109.052 18.5821 112.608 18.5821C114.876 18.5821 116.276 19.6181 117.284 20.8221V13.4301H121.54V33.8701ZM117.34 26.3941V26.3381C117.34 23.8461 115.688 22.1941 113.7 22.1941C111.712 22.1941 110.032 23.8181 110.032 26.3381V26.3941C110.032 28.8861 111.712 30.5381 113.7 30.5381C115.688 30.5381 117.34 28.8861 117.34 26.3941ZM129.906 17.2101H125.426V13.4301H129.906V17.2101ZM129.794 33.8701H125.538V18.8621H129.794V33.8701ZM149.304 26.3941C149.304 30.7061 145.832 34.2061 141.156 34.2061C136.508 34.2061 133.064 30.7621 133.064 26.4501V26.3941C133.064 22.0821 136.536 18.5821 141.212 18.5821C145.86 18.5821 149.304 22.0261 149.304 26.3381V26.3941ZM145.104 26.4501V26.3941C145.104 24.1821 143.508 22.2501 141.156 22.2501C138.72 22.2501 137.264 24.1261 137.264 26.3381V26.3941C137.264 28.6061 138.86 30.5381 141.212 30.5381C143.648 30.5381 145.104 28.6621 145.104 26.4501ZM173.206 18.8621L168.53 33.9821H164.694L161.81 24.7701L158.87 33.9821H155.062L150.442 18.8621H154.754L157.162 27.9621L159.99 18.8061H163.658L166.514 27.9901L168.978 18.8621H173.206ZM188.153 33.8701H184.037V32.2461C183.001 33.3941 181.573 34.1501 179.501 34.1501C176.673 34.1501 174.349 32.5261 174.349 29.5581V29.5021C174.349 26.2261 176.841 24.7141 180.397 24.7141C181.909 24.7141 183.001 24.9661 184.065 25.3301V25.0781C184.065 23.3141 182.973 22.3341 180.845 22.3341C179.221 22.3341 178.073 22.6421 176.701 23.1461L175.637 19.8981C177.289 19.1701 178.913 18.6941 181.461 18.6941C186.109 18.6941 188.153 21.1021 188.153 25.1621V33.8701ZM184.121 28.5781V27.8221C183.393 27.4861 182.441 27.2621 181.405 27.2621C179.585 27.2621 178.465 27.9901 178.465 29.3341V29.3901C178.465 30.5381 179.417 31.2101 180.789 31.2101C182.777 31.2101 184.121 30.1181 184.121 28.5781ZM205.604 18.8621L199.696 33.9821H195.832L189.924 18.8621H194.432L197.792 28.9141L201.18 18.8621H205.604ZM221.209 26.7861C221.209 27.2061 221.181 27.4581 221.153 27.8501H210.709C211.129 29.7821 212.473 30.7901 214.377 30.7901C215.805 30.7901 216.841 30.3421 218.017 29.2501L220.453 31.4061C219.053 33.1421 217.037 34.2061 214.321 34.2061C209.813 34.2061 206.481 31.0421 206.481 26.4501V26.3941C206.481 22.1101 209.533 18.5821 213.901 18.5821C218.913 18.5821 221.209 22.4741 221.209 26.7301V26.7861ZM217.065 25.1901C216.813 23.2861 215.693 21.9981 213.901 21.9981C212.137 21.9981 210.989 23.2581 210.653 25.1901H217.065Z" fill="black"/>
<defs>
<linearGradient id="paint0_linear_275_288" x1="51.8806" y1="20.5" x2="3.73216" y2="21.811" gradientUnits="userSpaceOnUse">
<stop stop-color="#36E12E"/>
<stop offset="0.235577" stop-color="#42C83C"/>
<stop offset="1" stop-color="#A9E362"/>
</linearGradient>
<linearGradient id="paint1_linear_275_288" x1="2.53358" y1="21.6798" x2="-0.0250555" y2="21.7505" gradientUnits="userSpaceOnUse">
<stop offset="1" stop-color="#A9E362"/>
</linearGradient>
<clipPath id="clip0_275_288">
<rect width="65" height="45" fill="white"/>
</clipPath>
</defs>
</svg>
