<svg width="130" height="90" viewBox="0 0 130 90" fill="none" xmlns="http://www.w3.org/2000/svg">
<g clip-path="url(#clip0_275_280)">
<path d="M104.884 0.328894C104.105 0.77018 104.131 0.744222 101.301 10.3227C100.575 12.8147 98.7314 18.8369 97.226 23.691C95.7204 28.5452 94.2668 33.2696 93.9812 34.204C91.9564 40.7974 89.127 49.7528 87.985 52.9976C86.8168 56.476 86.635 56.7874 86.4534 56.1126C86.3236 55.6972 86.2976 54.9444 86.3756 54.4512C86.4274 53.958 86.6092 48.9742 86.7648 43.4192C86.8946 37.8382 87.1542 29.4798 87.31 24.8072C87.5956 16.345 87.5956 16.319 87.0504 15.4364C86.2716 14.1905 84.9478 13.5934 82.8712 13.5675C79.0294 13.5675 79.7822 12.5811 70.7228 29.5316C64.5708 41.057 62.572 44.6132 62.001 44.9766C60.4694 45.937 55.9008 36.073 54.9664 29.7652C54.8626 29.0904 54.551 28.1818 54.2914 27.7406C53.2792 26.0532 51.7216 26.0532 49.2038 27.6886C47.6202 28.701 47.2828 29.0904 42.4806 34.853C36.8218 41.68 35.2124 43.2374 34.5374 42.5626C34.4076 42.4328 34.1222 41.3426 33.9144 40.1484C33.4472 37.319 33.1358 36.6442 32.1494 36.047C30.7996 35.2424 30.0208 35.1646 28.7228 35.7616C27.2952 36.3846 26.4386 37.0854 24.7514 39.0062C23.09 40.9012 22.0516 41.654 20.4682 42.1212C18.8588 42.6144 17.0158 42.329 14.1605 41.1868C11.6944 40.2004 10.5004 40.2004 9.6178 41.1348C8.78716 42.0174 8.31992 43.7566 8.42374 45.4958L8.50162 46.7936L10.3187 47.9098C12.9404 49.5192 15.1469 50.1422 17.7946 49.9866C20.65 49.8048 22.2852 49.1298 25.2186 46.8976C27.2432 45.366 27.7106 45.1064 27.97 45.418C28.1778 45.5996 28.7488 47.858 29.268 50.4018C30.2804 55.4118 31.1888 58.2672 31.9158 58.8122C32.98 59.591 35.5498 58.293 38.3792 55.5416C39.4954 54.4254 41.9354 51.6218 43.8044 49.2596C45.6734 46.8976 47.5424 44.795 47.9318 44.5872C48.6066 44.2498 48.6846 44.2498 49.022 44.691C49.2038 44.9766 49.8526 46.7158 50.4238 48.5848C51.0208 50.4538 52.2928 54.5032 53.2792 57.5662C54.2656 60.6292 55.2 63.7182 55.3818 64.3932C55.7452 65.8728 56.4978 66.4698 58.0034 66.4958L59.0418 66.5218L64.5968 57.3066C67.6858 52.2448 71.0084 46.6638 72.0208 44.8988C73.0332 43.1596 73.9676 41.8098 74.0974 41.9396C74.6166 42.4586 74.8502 48.429 74.98 64.8344L75.1358 82.356L75.7328 83.2646C76.9268 85.1076 80.0678 87.8852 81.9626 88.7418C83.546 89.4686 84.7662 89.3908 85.6746 88.4822C86.8428 87.2882 89.5424 79.6306 98.1864 52.9976C99.4842 49.0002 100.704 45.4958 100.912 45.2102C101.249 44.769 101.275 44.8208 101.301 45.8852C101.301 46.534 101.12 49.104 100.912 51.57C100.678 54.062 100.575 56.2684 100.652 56.502C101.016 57.67 110.88 63.277 112.541 63.277C113.839 63.277 115.189 61.5898 117.343 57.2288C119.524 52.8678 118.667 53.439 124.949 52.0632L128.765 51.2584L128.947 49.104C129.128 46.9494 128.973 45.1324 128.505 43.6268C128.298 42.874 128.064 42.7182 126.844 42.3548C125.105 41.8616 123.106 42.0174 120.225 42.926C117.499 43.7826 116.149 45.0026 114.644 47.9878C114.021 49.2596 113.424 50.298 113.346 50.298C113.164 50.298 113.268 47.9618 114.021 35.8914C114.644 26.0792 114.903 22.8864 115.656 16.0335C116.642 6.92222 116.357 3.36598 114.514 1.52296C113.553 0.562516 112.074 0.199105 108.44 0.0433572C106.181 -0.0604748 105.429 0.0173992 104.884 0.328894Z" fill="url(#paint0_linear_275_280)"/>
<path d="M0.75927 41.9654C-0.25309 43.0038 -0.25309 44.094 0.75927 45.1322C1.46014 45.8072 1.69376 45.885 3.19932 45.885C4.1338 45.885 5.09426 45.8072 5.32788 45.7294C6.00278 45.4438 6.57386 44.12 6.3662 43.1076C6.13256 41.8616 4.99042 41.2126 3.04358 41.2126C1.71972 41.2126 1.43418 41.3164 0.75927 41.9654Z" fill="url(#paint1_linear_275_280)"/>
</g>
<defs>
<linearGradient id="paint0_linear_275_280" x1="103.761" y1="41" x2="7.46432" y2="43.622" gradientUnits="userSpaceOnUse">
<stop stop-color="#36E12E"/>
<stop offset="0.235577" stop-color="#42C83C"/>
<stop offset="1" stop-color="#A9E362"/>
</linearGradient>
<linearGradient id="paint1_linear_275_280" x1="5.06716" y1="43.3596" x2="-0.0501111" y2="43.501" gradientUnits="userSpaceOnUse">
<stop offset="1" stop-color="#A9E362"/>
</linearGradient>
<clipPath id="clip0_275_280">
<rect width="130" height="90" fill="white"/>
</clipPath>
</defs>
</svg>
