<svg width="224" height="45" viewBox="0 0 224 45" fill="none" xmlns="http://www.w3.org/2000/svg">
<g clip-path="url(#clip0_275_337)">
<path d="M52.4417 0.164447C52.0523 0.38509 52.0653 0.372111 50.6506 5.16136C50.2872 6.40734 49.3656 9.41846 48.6129 11.8455C47.8601 14.2726 47.1333 16.6348 46.9905 17.102C45.9781 20.3987 44.5634 24.8764 43.9924 26.4988C43.4083 28.238 43.3174 28.3937 43.2266 28.0563C43.1617 27.8486 43.1487 27.4722 43.1877 27.2256C43.2136 26.979 43.3045 24.4871 43.3823 21.7096C43.4472 18.9191 43.577 14.7399 43.6549 12.4036C43.7977 8.17248 43.7977 8.1595 43.5251 7.71822C43.1357 7.09523 42.4738 6.79671 41.4355 6.78373C39.5146 6.78373 39.891 6.29053 35.3613 14.7658C32.2853 20.5285 31.2859 22.3066 31.0004 22.4883C30.2346 22.9685 27.9503 18.0365 27.4831 14.8826C27.4312 14.5452 27.2754 14.0909 27.1456 13.8703C26.6395 13.0266 25.8607 13.0266 24.6018 13.8443C23.81 14.3505 23.6413 14.5452 21.2402 17.4265C18.4108 20.84 17.6061 21.6187 17.2686 21.2813C17.2037 21.2164 17.061 20.6713 16.9571 20.0742C16.7235 18.6595 16.5678 18.3221 16.0746 18.0235C15.3997 17.6212 15.0103 17.5823 14.3613 17.8808C13.6475 18.1923 13.2192 18.5427 12.3756 19.5031C11.5449 20.4506 11.0257 20.827 10.234 21.0606C9.4293 21.3072 8.50779 21.1645 7.08011 20.5934C5.8471 20.1002 5.25007 20.1002 4.80878 20.5674C4.39346 21.0087 4.15984 21.8783 4.21175 22.7479L4.25069 23.3968L5.15922 23.9549C6.47009 24.7596 7.57331 25.0711 8.89716 24.9933C10.3249 24.9024 11.1425 24.5649 12.6092 23.4488C13.6215 22.683 13.8552 22.5532 13.9849 22.709C14.0888 22.7998 14.3743 23.929 14.6339 25.2009C15.1401 27.7059 15.5943 29.1336 15.9578 29.4061C16.4899 29.7955 17.7748 29.1465 19.1895 27.7708C19.7476 27.2127 20.9676 25.8109 21.9021 24.6298C22.8366 23.4488 23.7711 22.3975 23.9658 22.2936C24.3032 22.1249 24.3422 22.1249 24.5109 22.3455C24.6018 22.4883 24.9262 23.3579 25.2118 24.2924C25.5103 25.2269 26.1463 27.2516 26.6395 28.7831C27.1327 30.3146 27.5999 31.8591 27.6908 32.1966C27.8725 32.9364 28.2488 33.2349 29.0016 33.2479L29.5208 33.2609L32.2983 28.6533C33.8428 26.1224 35.5041 23.3319 36.0103 22.4494C36.5165 21.5798 36.9837 20.9049 37.0486 20.9698C37.3082 21.2293 37.425 24.2145 37.4899 32.4172L37.5678 41.178L37.8663 41.6323C38.4633 42.5538 40.0338 43.9426 40.9812 44.3709C41.7729 44.7343 42.383 44.6954 42.8372 44.2411C43.4213 43.6441 44.7711 39.8153 49.0931 26.4988C49.742 24.5001 50.3521 22.7479 50.4559 22.6051C50.6246 22.3845 50.6376 22.4104 50.6506 22.9426C50.6506 23.267 50.5597 24.552 50.4559 25.785C50.3391 27.031 50.2872 28.1342 50.3261 28.251C50.5078 28.835 55.4398 31.6385 56.2705 31.6385C56.9194 31.6385 57.5943 30.7949 58.6716 28.6144C59.7618 26.4339 59.3335 26.7195 62.4744 26.0316L64.3823 25.6292L64.4732 24.552C64.564 23.4747 64.4862 22.5662 64.2525 21.8134C64.1487 21.437 64.0319 21.3591 63.4219 21.1774C62.5523 20.9308 61.5529 21.0087 60.1122 21.463C58.7495 21.8913 58.0745 22.5013 57.3218 23.9939C57.0103 24.6298 56.7118 25.149 56.6728 25.149C56.582 25.149 56.6339 23.9809 57.0103 17.9457C57.3218 13.0396 57.4516 11.4432 57.8279 8.01673C58.3211 3.46111 58.1784 1.68299 57.2569 0.761481C56.7766 0.281258 56.0368 0.0995525 54.2198 0.0216786C53.0906 -0.0302374 52.7142 0.00869958 52.4417 0.164447Z" fill="url(#paint0_linear_275_337)"/>
<path d="M0.379635 20.9826C-0.126545 21.5018 -0.126545 22.0469 0.379635 22.566C0.730068 22.9035 0.846879 22.9424 1.59966 22.9424C2.0669 22.9424 2.54713 22.9035 2.66394 22.8646C3.00139 22.7218 3.28693 22.0599 3.1831 21.5537C3.06628 20.9307 2.49521 20.6062 1.52179 20.6062C0.859858 20.6062 0.717089 20.6581 0.379635 20.9826Z" fill="url(#paint1_linear_275_337)"/>
</g>
<path d="M85.3403 33.8701H81.2243V32.2461C80.1883 33.3941 78.7603 34.1501 76.6883 34.1501C73.8603 34.1501 71.5363 32.5261 71.5363 29.5581V29.5021C71.5363 26.2261 74.0283 24.7141 77.5843 24.7141C79.0963 24.7141 80.1883 24.9661 81.2523 25.3301V25.0781C81.2523 23.3141 80.1603 22.3341 78.0323 22.3341C76.4083 22.3341 75.2603 22.6421 73.8883 23.1461L72.8243 19.8981C74.4763 19.1701 76.1003 18.6941 78.6483 18.6941C83.2963 18.6941 85.3403 21.1021 85.3403 25.1621V33.8701ZM81.3083 28.5781V27.8221C80.5803 27.4861 79.6283 27.2621 78.5923 27.2621C76.7723 27.2621 75.6523 27.9901 75.6523 29.3341V29.3901C75.6523 30.5381 76.6043 31.2101 77.9763 31.2101C79.9643 31.2101 81.3083 30.1181 81.3083 28.5781ZM102.639 33.8701H98.3826V31.7421C97.4026 33.0021 96.1426 34.1501 93.9866 34.1501C90.7666 34.1501 88.8906 32.0221 88.8906 28.5781V18.8621H93.1466V27.2341C93.1466 29.2501 94.0986 30.2861 95.7226 30.2861C97.3466 30.2861 98.3826 29.2501 98.3826 27.2341V18.8621H102.639V33.8701ZM121.54 33.8701H117.284V31.7141C116.248 33.1141 114.82 34.1501 112.608 34.1501C109.108 34.1501 105.776 31.4061 105.776 26.3941V26.3381C105.776 21.3261 109.052 18.5821 112.608 18.5821C114.876 18.5821 116.276 19.6181 117.284 20.8221V13.4301H121.54V33.8701ZM117.34 26.3941V26.3381C117.34 23.8461 115.688 22.1941 113.7 22.1941C111.712 22.1941 110.032 23.8181 110.032 26.3381V26.3941C110.032 28.8861 111.712 30.5381 113.7 30.5381C115.688 30.5381 117.34 28.8861 117.34 26.3941ZM129.906 17.2101H125.426V13.4301H129.906V17.2101ZM129.794 33.8701H125.538V18.8621H129.794V33.8701ZM149.304 26.3941C149.304 30.7061 145.832 34.2061 141.156 34.2061C136.508 34.2061 133.064 30.7621 133.064 26.4501V26.3941C133.064 22.0821 136.536 18.5821 141.212 18.5821C145.86 18.5821 149.304 22.0261 149.304 26.3381V26.3941ZM145.104 26.4501V26.3941C145.104 24.1821 143.508 22.2501 141.156 22.2501C138.72 22.2501 137.264 24.1261 137.264 26.3381V26.3941C137.264 28.6061 138.86 30.5381 141.212 30.5381C143.648 30.5381 145.104 28.6621 145.104 26.4501ZM173.207 18.8621L168.531 33.9821H164.695L161.811 24.7701L158.871 33.9821H155.063L150.443 18.8621H154.755L157.163 27.9621L159.991 18.8061H163.659L166.515 27.9901L168.979 18.8621H173.207ZM188.153 33.8701H184.037V32.2461C183.001 33.3941 181.573 34.1501 179.501 34.1501C176.673 34.1501 174.349 32.5261 174.349 29.5581V29.5021C174.349 26.2261 176.841 24.7141 180.397 24.7141C181.909 24.7141 183.001 24.9661 184.065 25.3301V25.0781C184.065 23.3141 182.973 22.3341 180.845 22.3341C179.221 22.3341 178.073 22.6421 176.701 23.1461L175.637 19.8981C177.289 19.1701 178.913 18.6941 181.461 18.6941C186.109 18.6941 188.153 21.1021 188.153 25.1621V33.8701ZM184.121 28.5781V27.8221C183.393 27.4861 182.441 27.2621 181.405 27.2621C179.585 27.2621 178.465 27.9901 178.465 29.3341V29.3901C178.465 30.5381 179.417 31.2101 180.789 31.2101C182.777 31.2101 184.121 30.1181 184.121 28.5781ZM205.604 18.8621L199.696 33.9821H195.832L189.924 18.8621H194.432L197.792 28.9141L201.18 18.8621H205.604ZM221.21 26.7861C221.21 27.2061 221.182 27.4581 221.154 27.8501H210.71C211.13 29.7821 212.474 30.7901 214.378 30.7901C215.806 30.7901 216.842 30.3421 218.018 29.2501L220.454 31.4061C219.054 33.1421 217.038 34.2061 214.322 34.2061C209.814 34.2061 206.482 31.0421 206.482 26.4501V26.3941C206.482 22.1101 209.534 18.5821 213.902 18.5821C218.914 18.5821 221.21 22.4741 221.21 26.7301V26.7861ZM217.066 25.1901C216.814 23.2861 215.694 21.9981 213.902 21.9981C212.138 21.9981 210.99 23.2581 210.654 25.1901H217.066Z" fill="white"/>
<defs>
<linearGradient id="paint0_linear_275_337" x1="51.8805" y1="20.5" x2="3.73204" y2="21.811" gradientUnits="userSpaceOnUse">
<stop stop-color="#36E12E"/>
<stop offset="0.235577" stop-color="#42C83C"/>
<stop offset="1" stop-color="#A9E362"/>
</linearGradient>
<linearGradient id="paint1_linear_275_337" x1="2.53358" y1="21.6797" x2="-0.0250555" y2="21.7504" gradientUnits="userSpaceOnUse">
<stop offset="1" stop-color="#A9E362"/>
</linearGradient>
<clipPath id="clip0_275_337">
<rect width="65" height="45" fill="white"/>
</clipPath>
</defs>
</svg>
