<svg width="12" height="12" viewBox="0 0 12 12" fill="none" xmlns="http://www.w3.org/2000/svg">
<path d="M7.84429 1.9351C6.83392 1.35901 6.0491 0.911518 5.41172 0.62122C4.77194 0.329833 4.21659 0.165279 3.67659 0.221331C2.81955 0.310291 2.03933 0.754361 1.53088 1.44549C1.20972 1.88203 1.076 2.44233 1.01156 3.13599C0.947382 3.82688 0.947385 4.72233 0.947388 5.87394V5.92193C0.947385 7.07354 0.947382 7.969 1.01156 8.65988C1.076 9.35355 1.20972 9.91384 1.53088 10.3504C2.03933 11.0415 2.81954 11.4856 3.67659 11.5745C4.21659 11.6306 4.77194 11.466 5.41172 11.1747C6.0491 10.8844 6.83391 10.4369 7.84427 9.86079L7.88528 9.8374C8.89558 9.26135 9.68043 8.81386 10.2538 8.41382C10.8287 8.01264 11.2526 7.61894 11.4748 7.126C11.8271 6.34441 11.8271 5.45147 11.4748 4.66988C11.2526 4.17694 10.8287 3.78323 10.2538 3.38205C9.68043 2.98202 8.89558 2.53452 7.88528 1.95847L7.84429 1.9351Z" fill="#555555"/>
</svg>
