<svg width="20" height="25" viewBox="0 0 20 25" fill="none" xmlns="http://www.w3.org/2000/svg">
<path fill-rule="evenodd" clip-rule="evenodd" d="M10 0.458252C6.93946 0.458252 4.45837 2.93934 4.45837 5.99992C4.45837 9.0605 6.93946 11.5416 10 11.5416C13.0606 11.5416 15.5417 9.0605 15.5417 5.99992C15.5417 2.93934 13.0606 0.458252 10 0.458252ZM6.20837 5.99992C6.20837 3.90584 7.90596 2.20825 10 2.20825C12.0941 2.20825 13.7917 3.90584 13.7917 5.99992C13.7917 8.094 12.0941 9.79159 10 9.79159C7.90596 9.79159 6.20837 8.094 6.20837 5.99992Z" fill="#808080"/>
<path fill-rule="evenodd" clip-rule="evenodd" d="M6.50004 13.2916C3.43946 13.2916 0.958374 15.7727 0.958374 18.8333C0.958374 21.8938 3.43946 24.3749 6.50004 24.3749H13.5C16.5606 24.3749 19.0417 21.8938 19.0417 18.8333C19.0417 15.7727 16.5606 13.2916 13.5 13.2916H6.50004ZM2.70837 18.8333C2.70837 16.7392 4.40596 15.0416 6.50004 15.0416H13.5C15.5941 15.0416 17.2917 16.7392 17.2917 18.8333C17.2917 20.9273 15.5941 22.6249 13.5 22.6249H6.50004C4.40596 22.6249 2.70837 20.9273 2.70837 18.8333Z" fill="#808080"/>
</svg>
